<svg xmlns="http://www.w3.org/2000/svg" width="23.895" height="28.395" viewBox="0 0 23.895 28.395"><path d="M10.665,12.8,8.55,10.665A11.883,11.883,0,0,0,6.105,16.5h3.03A8.9,8.9,0,0,1,10.665,12.8Zm-1.53,6.7H6.105a11.859,11.859,0,0,0,2.43,5.835L10.65,23.2a8.993,8.993,0,0,1-1.515-3.7Zm1.515,7.98A11.886,11.886,0,0,0,16.5,29.9V26.85a8.871,8.871,0,0,1-3.69-1.545L10.65,27.48ZM19.5,6.105V1.5L12.675,8.325,19.5,15V9.135a8.989,8.989,0,0,1,0,17.73V29.9a11.988,11.988,0,0,0,0-23.79Z" transform="translate(-6.105 -1.5)" fill="#fff"/></svg>