<svg xmlns="http://www.w3.org/2000/svg" width="23.895" height="28.395" viewBox="0 0 23.895 28.395"><path d="M23.325,8.325,16.5,1.5V6.105a11.988,11.988,0,0,0,0,23.79v-3.03a8.989,8.989,0,0,1,0-17.73V15ZM29.9,16.5a11.859,11.859,0,0,0-2.43-5.835l-2.13,2.13a8.709,8.709,0,0,1,1.53,3.7ZM19.5,26.85v3.03a11.886,11.886,0,0,0,5.85-2.415l-2.16-2.16A8.678,8.678,0,0,1,19.5,26.85Zm5.835-3.63,2.13,2.115A11.859,11.859,0,0,0,29.9,19.5h-3.03a8.846,8.846,0,0,1-1.53,3.72Z" transform="translate(-6 -1.5)" fill="#fff"/></svg>