<svg width="414" height="370" viewBox="0 0 414 370" fill="none" xmlns="http://www.w3.org/2000/svg">
<path d="M208.115 5.36703L78.3768 85.2056C78.3768 85.2056 78.3768 249.873 208.115 339.691C337.852 249.873 337.852 85.2056 337.852 85.2056L208.115 5.36703Z" fill="#3F3D56"/>
<path opacity="0.04" d="M208.889 5.36703L206.671 6.7318V338.134C207.408 338.654 208.144 339.175 208.889 339.691C338.627 249.873 338.627 85.2056 338.627 85.2056L208.889 5.36703Z" fill="black"/>
<g opacity="0.7">
<path opacity="0.7" d="M176.706 167.151L201.163 189.571L231.482 145.833L243.711 156.024L201.163 209.953L166.515 171.228L176.706 167.151Z" fill="url(#paint0_linear)"/>
</g>
<path d="M182.478 168.498L202.318 186.685L230.424 145.352L240.344 153.618L202.318 203.218L174.212 171.805L182.478 168.498Z" fill="#3AD29F"/>
<path opacity="0.5" d="M80.105 23.2666C79.7073 23.0934 79.3872 22.78 79.2056 22.3861C79.024 21.9921 78.9936 21.5452 79.1201 21.1303C79.1406 21.0667 79.1535 21.0009 79.1585 20.9342V20.9342C79.1701 20.7441 79.1201 20.5554 79.016 20.3959C78.912 20.2364 78.7593 20.1147 78.5806 20.0488C78.4019 19.9829 78.2068 19.9763 78.024 20.0299C77.8413 20.0836 77.6807 20.1947 77.5661 20.3468V20.3468C77.5266 20.4007 77.4937 20.4592 77.468 20.5208C77.2948 20.9185 76.9814 21.2386 76.5875 21.4203C76.1936 21.6019 75.7466 21.6323 75.3317 21.5058C75.2681 21.4853 75.2023 21.4724 75.1356 21.4673C74.9456 21.4557 74.7568 21.5057 74.5973 21.6098C74.4378 21.7139 74.3161 21.8666 74.2502 22.0453C74.1843 22.2239 74.1777 22.4191 74.2314 22.6018C74.285 22.7845 74.3961 22.9451 74.5482 23.0598V23.0598C74.6022 23.0992 74.6606 23.1321 74.7222 23.1579C75.1199 23.3311 75.4401 23.6445 75.6217 24.0384C75.8033 24.4323 75.8337 24.8793 75.7072 25.2942C75.6867 25.3578 75.6738 25.4236 75.6687 25.4902V25.4902C75.6572 25.6803 75.7071 25.8691 75.8112 26.0285C75.9153 26.188 76.068 26.3097 76.2467 26.3756C76.4254 26.4416 76.6205 26.4482 76.8032 26.3945C76.986 26.3408 77.1465 26.2297 77.2612 26.0777V26.0777C77.3006 26.0237 77.3335 25.9653 77.3593 25.9036C77.5325 25.5059 77.8459 25.1858 78.2398 25.0042C78.6337 24.8226 79.0807 24.7921 79.4956 24.9187C79.5592 24.9392 79.625 24.9521 79.6916 24.9571V24.9571C79.8817 24.9687 80.0705 24.9187 80.23 24.8146C80.3894 24.7105 80.5111 24.5578 80.5771 24.3792C80.643 24.2005 80.6496 24.0053 80.5959 23.8226C80.5422 23.6399 80.4311 23.4793 80.2791 23.3647V23.3647C80.2251 23.3252 80.1667 23.2923 80.105 23.2666V23.2666Z" fill="#4D8AF0"/>
<path opacity="0.5" d="M9.87302 179.605C9.47533 179.432 9.15521 179.118 8.9736 178.724C8.79198 178.33 8.76156 177.883 8.88811 177.469C8.90859 177.405 8.92148 177.339 8.92654 177.272V177.272C8.93811 177.082 8.88815 176.894 8.78406 176.734C8.67996 176.575 8.52726 176.453 8.34859 176.387C8.16991 176.321 7.97476 176.315 7.79203 176.368C7.60931 176.422 7.44873 176.533 7.33408 176.685V176.685C7.29466 176.739 7.26174 176.797 7.236 176.859C7.06279 177.257 6.7494 177.577 6.35547 177.759C5.96155 177.94 5.5146 177.971 5.09969 177.844C5.03608 177.824 4.97028 177.811 4.90365 177.806V177.806C4.71356 177.794 4.52479 177.844 4.36532 177.948C4.20584 178.052 4.08413 178.205 4.01822 178.384C3.9523 178.562 3.9457 178.757 3.99937 178.94C4.05304 179.123 4.16414 179.283 4.31621 179.398C4.37016 179.437 4.42858 179.47 4.49025 179.496C4.88795 179.669 5.20807 179.983 5.38968 180.377C5.5713 180.771 5.60172 181.218 5.47517 181.632C5.45469 181.696 5.44179 181.762 5.43673 181.828V181.828C5.42516 182.019 5.47512 182.207 5.57922 182.367C5.68332 182.526 5.83601 182.648 6.01469 182.714C6.19336 182.78 6.38852 182.786 6.57124 182.733C6.75397 182.679 6.91455 182.568 7.0292 182.416C7.06862 182.362 7.10155 182.304 7.12728 182.242C7.30049 181.844 7.61388 181.524 8.0078 181.342C8.40173 181.161 8.84868 181.13 9.26358 181.257C9.32719 181.277 9.39299 181.29 9.45962 181.295V181.295C9.64971 181.307 9.83848 181.257 9.99796 181.153C10.1574 181.049 10.2791 180.896 10.3451 180.717C10.411 180.539 10.4176 180.344 10.3639 180.161C10.3102 179.978 10.1991 179.818 10.0471 179.703C9.99311 179.664 9.93469 179.631 9.87302 179.605V179.605Z" fill="#4D8AF0"/>
<path opacity="0.5" d="M360.605 125.268C362.199 125.268 363.491 123.976 363.491 122.382C363.491 120.788 362.199 119.496 360.605 119.496C359.01 119.496 357.718 120.788 357.718 122.382C357.718 123.976 359.01 125.268 360.605 125.268Z" fill="#F55F44"/>
<path opacity="0.5" d="M58.9919 331.635C60.5859 331.635 61.8781 330.342 61.8781 328.748C61.8781 327.154 60.5859 325.862 58.9919 325.862C57.3979 325.862 56.1057 327.154 56.1057 328.748C56.1057 330.342 57.3979 331.635 58.9919 331.635Z" fill="#F55F44"/>
<path opacity="0.5" d="M409.671 236.389C411.265 236.389 412.557 235.096 412.557 233.502C412.557 231.908 411.265 230.616 409.671 230.616C408.077 230.616 406.784 231.908 406.784 233.502C406.784 235.096 408.077 236.389 409.671 236.389Z" fill="#F55F44"/>
<path opacity="0.5" d="M339.386 37.2167C338.988 37.0435 338.668 36.7301 338.487 36.3362C338.305 35.9423 338.275 35.4953 338.401 35.0804C338.422 35.0168 338.434 34.951 338.44 34.8844V34.8844C338.451 34.6943 338.401 34.5055 338.297 34.3461C338.193 34.1866 338.04 34.0649 337.862 33.999C337.683 33.933 337.488 33.9264 337.305 33.9801C337.122 34.0338 336.962 34.1449 336.847 34.297C336.808 34.3509 336.775 34.4093 336.749 34.471C336.576 34.8687 336.262 35.1888 335.868 35.3704C335.475 35.552 335.028 35.5825 334.613 35.4559C334.549 35.4354 334.483 35.4225 334.417 35.4175V35.4175C334.227 35.4059 334.038 35.4559 333.878 35.56C333.719 35.6641 333.597 35.8168 333.531 35.9954C333.465 36.1741 333.459 36.3693 333.512 36.552C333.566 36.7347 333.677 36.8953 333.829 37.0099V37.0099C333.883 37.0494 333.942 37.0823 334.003 37.108C334.401 37.2812 334.721 37.5946 334.903 37.9885C335.084 38.3825 335.115 38.8294 334.988 39.2443C334.968 39.3079 334.955 39.3737 334.95 39.4404V39.4404C334.938 39.6305 334.988 39.8192 335.092 39.9787C335.196 40.1382 335.349 40.2599 335.528 40.3258C335.706 40.3917 335.902 40.3983 336.084 40.3447C336.267 40.291 336.428 40.1799 336.542 40.0278V40.0278C336.582 39.9739 336.615 39.9154 336.64 39.8538C336.813 39.4561 337.127 39.136 337.521 38.9543C337.915 38.7727 338.362 38.7423 338.777 38.8689C338.84 38.8893 338.906 38.9022 338.973 38.9073V38.9073C339.163 38.9189 339.351 38.8689 339.511 38.7648C339.67 38.6607 339.792 38.508 339.858 38.3293C339.924 38.1507 339.931 37.9555 339.877 37.7728C339.823 37.5901 339.712 37.4295 339.56 37.3148C339.506 37.2754 339.448 37.2425 339.386 37.2167V37.2167Z" fill="#4D8AF0"/>
<path opacity="0.5" d="M387.49 339.31C387.092 339.137 386.772 338.824 386.591 338.43C386.409 338.036 386.379 337.589 386.505 337.174C386.526 337.11 386.539 337.045 386.544 336.978V336.978C386.555 336.788 386.505 336.599 386.401 336.44C386.297 336.28 386.144 336.158 385.966 336.093C385.787 336.027 385.592 336.02 385.409 336.074C385.226 336.127 385.066 336.238 384.951 336.391C384.912 336.445 384.879 336.503 384.853 336.565C384.68 336.962 384.366 337.282 383.973 337.464C383.579 337.646 383.132 337.676 382.717 337.55C382.653 337.529 382.587 337.516 382.521 337.511V337.511C382.331 337.5 382.142 337.549 381.982 337.654C381.823 337.758 381.701 337.91 381.635 338.089C381.569 338.268 381.563 338.463 381.616 338.646C381.67 338.828 381.781 338.989 381.933 339.104V339.104C381.987 339.143 382.046 339.176 382.107 339.202C382.505 339.375 382.825 339.688 383.007 340.082C383.188 340.476 383.219 340.923 383.092 341.338C383.072 341.402 383.059 341.467 383.054 341.534V341.534C383.042 341.724 383.092 341.913 383.196 342.072C383.3 342.232 383.453 342.354 383.632 342.419C383.81 342.485 384.006 342.492 384.188 342.438C384.371 342.385 384.532 342.273 384.646 342.121V342.121C384.686 342.067 384.719 342.009 384.744 341.947C384.918 341.55 385.231 341.23 385.625 341.048C386.019 340.866 386.466 340.836 386.881 340.962C386.944 340.983 387.01 340.996 387.077 341.001V341.001C387.267 341.012 387.456 340.962 387.615 340.858C387.774 340.754 387.896 340.602 387.962 340.423C388.028 340.244 388.035 340.049 387.981 339.866C387.927 339.684 387.816 339.523 387.664 339.408C387.61 339.369 387.552 339.336 387.49 339.31V339.31Z" fill="#4D8AF0"/>
<path opacity="0.5" d="M6.50578 88.2071C6.10808 88.0339 5.78797 87.7205 5.60635 87.3265C5.42473 86.9326 5.39431 86.4857 5.52086 86.0708C5.54134 86.0072 5.55424 85.9414 5.55929 85.8747V85.8747C5.57086 85.6846 5.5209 85.4959 5.41681 85.3364C5.31271 85.1769 5.16002 85.0552 4.98134 84.9893C4.80266 84.9234 4.60751 84.9168 4.42478 84.9704C4.24206 85.0241 4.08148 85.1352 3.96684 85.2873C3.92741 85.3412 3.89449 85.3997 3.86875 85.4613C3.69555 85.859 3.38215 86.1791 2.98822 86.3608C2.5943 86.5424 2.14735 86.5728 1.73244 86.4462C1.66884 86.4258 1.60304 86.4129 1.5364 86.4078V86.4078C1.34631 86.3962 1.15754 86.4462 0.998067 86.5503C0.838589 86.6544 0.716879 86.8071 0.650968 86.9858C0.585056 87.1644 0.578447 87.3596 0.632119 87.5423C0.685791 87.725 0.796892 87.8856 0.948961 88.0003V88.0003C1.00291 88.0397 1.06133 88.0726 1.123 88.0984C1.5207 88.2716 1.84082 88.5849 2.02244 88.9789C2.20405 89.3728 2.23447 89.8197 2.10792 90.2347C2.08744 90.2983 2.07454 90.3641 2.06949 90.4307V90.4307C2.05791 90.6208 2.10788 90.8096 2.21197 90.969C2.31607 91.1285 2.46876 91.2502 2.64744 91.3161C2.82611 91.382 3.02127 91.3887 3.20399 91.335C3.38672 91.2813 3.5473 91.1702 3.66195 91.0181V91.0181C3.70138 90.9642 3.7343 90.9058 3.76004 90.8441C3.93324 90.4464 4.24663 90.1263 4.64055 89.9447C5.03448 89.7631 5.48143 89.7326 5.89634 89.8592C5.95994 89.8797 6.02574 89.8926 6.09237 89.8976V89.8976C6.28247 89.9092 6.47124 89.8592 6.63071 89.7551C6.79019 89.651 6.91189 89.4983 6.9778 89.3197C7.04371 89.141 7.05032 88.9458 6.99665 88.7631C6.94298 88.5804 6.83188 88.4198 6.67982 88.3052C6.62586 88.2657 6.56745 88.2328 6.50578 88.2071V88.2071Z" fill="#4D8AF0"/>
<path opacity="0.5" d="M38.7882 139.699C40.3822 139.699 41.6744 138.407 41.6744 136.813C41.6744 135.219 40.3822 133.927 38.7882 133.927C37.1941 133.927 35.9019 135.219 35.9019 136.813C35.9019 138.407 37.1941 139.699 38.7882 139.699Z" fill="#47E6B1"/>
<path opacity="0.5" d="M411.114 162.789C412.708 162.789 414 161.497 414 159.903C414 158.309 412.708 157.017 411.114 157.017C409.52 157.017 408.228 158.309 408.228 159.903C408.228 161.497 409.52 162.789 411.114 162.789Z" fill="#47E6B1"/>
<g opacity="0.5">
<path opacity="0.5" d="M282.676 0.197632H281.233V8.37533H282.676V0.197632Z" fill="#47E6B1"/>
<path opacity="0.5" d="M286.043 5.00803V3.56491L277.865 3.56491V5.00803H286.043Z" fill="#47E6B1"/>
</g>
<g opacity="0.5">
<path opacity="0.5" d="M287.967 320.571H286.524V328.748H287.967V320.571Z" fill="#47E6B1"/>
<path opacity="0.5" d="M291.335 325.381V323.938H283.157V325.381H291.335Z" fill="#47E6B1"/>
</g>
<g opacity="0.5">
<path opacity="0.5" d="M14.7362 337.888H13.293V346.066H14.7362V337.888Z" fill="#47E6B1"/>
<path opacity="0.5" d="M18.1035 342.699V341.256H9.92576V342.699H18.1035Z" fill="#47E6B1"/>
</g>
<g opacity="0.5">
<path opacity="0.5" d="M343.287 190.69H341.844V198.867H343.287V190.69Z" fill="#47E6B1"/>
<path opacity="0.5" d="M346.654 195.5V194.057H338.477V195.5H346.654Z" fill="#47E6B1"/>
</g>
<path opacity="0.5" d="M383.313 59.3743L386.412 62.2153L390.803 55.7578L392.353 57.0494L386.412 64.7985L382.021 59.8909L383.313 59.3743Z" fill="#47E6B1"/>
<path d="M294.832 115.297L284.14 115.712L284.673 129.458L295.365 129.043L294.832 115.297Z" fill="black"/>
<path d="M246.603 163.439C246.603 163.439 231.797 156.365 232.034 162.474C232.271 168.584 246.958 172.603 246.958 172.603L246.603 163.439Z" fill="#FFB9B9"/>
<path d="M254.726 215.132C254.726 215.132 247.741 232.229 245.16 244.566C242.579 256.903 238.648 273.882 243.704 285.923C248.76 297.964 263.134 333.353 263.283 337.172C263.431 340.99 262.051 344.868 265.106 344.749C268.161 344.631 284.784 339.397 285.459 337.076C286.134 334.756 279.787 328.883 279.787 328.883L264.116 279.778L280.467 247.786L292.26 295.512L294.57 355.079C294.57 355.079 305.906 351.58 307.552 354.575C307.552 354.575 312.631 347.495 313.277 344.411C313.922 341.326 310.878 282.553 310.878 282.553C310.878 282.553 321.284 215.61 312.884 215.936C304.483 216.262 271.58 196.123 254.726 215.132Z" fill="black"/>
<path d="M264.988 341.694C264.988 341.694 257.239 358.821 256.505 359.614C255.771 360.408 250.721 368.252 254.539 368.104C258.358 367.955 267.374 363.782 274.01 357.406C280.646 351.03 289.396 339.983 288.602 339.249C287.809 338.515 282.374 336.431 282.374 336.431L264.988 341.694Z" fill="#575A89"/>
<path d="M295.949 351.201C295.949 351.201 295.482 358.868 294.073 361.982C292.664 365.095 292.842 369.678 296.66 369.529C300.478 369.381 310.347 367.469 310.347 367.469C310.347 367.469 310.933 362.857 310.139 362.123C309.346 361.389 305.966 353.107 307.404 350.757C308.843 348.407 295.949 351.201 295.949 351.201Z" fill="#575A89"/>
<path d="M301.598 102.415C301.598 102.415 309.738 115.101 312.911 118.038C316.085 120.974 307.157 127.439 307.157 127.439L291.179 129.588C291.179 129.588 291.38 115.049 290.558 113.551C289.735 112.053 301.598 102.415 301.598 102.415Z" fill="#FFB9B9"/>
<path d="M287.71 119.015C287.71 119.015 291.002 125.006 294.057 124.887C297.111 124.769 312.911 118.038 313.586 115.717C314.261 113.396 318.82 132.34 318.82 132.34L280.158 200.379L270.727 193.861L275.297 153.913L279.05 132.353L287.71 119.015Z" fill="black"/>
<path d="M315.012 179.907C313.47 183.133 312.507 186.497 312.64 189.941C312.646 190.094 312.652 190.247 312.666 190.399C313.032 197.467 315.636 205.642 316.57 211.586C317.248 215.851 317.055 218.963 314.559 219.695C308.509 221.459 315.441 222.72 292.034 230.511C268.627 238.302 264.542 231.577 264.482 230.05C264.423 228.523 267.797 216.919 267.004 216.185C266.211 215.451 255.904 225.794 252.79 224.385C249.676 222.976 252.435 215.221 252.435 215.221C252.435 215.221 259.45 198.887 259.302 195.069C259.154 191.251 269.928 173.242 269.928 173.242L277.256 125.539C277.256 125.539 280.074 119.311 283.862 118.399C287.651 117.488 290.795 119.66 290.795 119.66L284.455 133.673L277.765 158.406L278.884 167.541C278.884 167.541 286.663 151.178 291.772 144.861C296.881 138.545 307.773 123.591 307.773 123.591C307.773 123.591 310.316 115.01 308.396 112.446C306.476 109.874 316.404 109.489 320.637 120.033C322.881 125.621 326.523 133.954 328.805 141.712C330.838 148.585 331.798 155.011 329.784 158.684C326.705 164.295 318.961 171.669 315.012 179.907Z" fill="#575A89"/>
<path opacity="0.1" d="M329.784 158.684C326.705 164.295 318.961 171.669 315.012 179.907C313.981 176.191 312.723 172.347 312.723 172.347C312.723 172.347 307.898 146.53 322.171 139.858C324.536 139.63 326.901 140.291 328.805 141.712C330.838 148.585 331.798 155.011 329.784 158.684Z" fill="black"/>
<path d="M273.124 157.057L261.024 160.585L244.223 161.237L242.495 175.835L270.105 177.824C270.105 177.824 277.002 158.436 273.124 157.057Z" fill="#575A89"/>
<path d="M292.855 206.142C292.855 206.142 276.668 208.828 280.362 213.699C284.057 218.57 298.397 213.449 298.397 213.449L292.855 206.142Z" fill="#FFB9B9"/>
<path opacity="0.1" d="M312.666 190.399C313.032 197.467 315.635 205.642 316.57 211.587C311.413 216.467 306.509 220.772 304.661 220.844C300.843 220.992 294.704 220.465 292.442 221.318C290.181 222.17 288.854 207.69 288.854 207.69C288.854 207.69 290.204 203.049 296.225 200.521C300.288 198.811 308.078 194.172 312.666 190.399Z" fill="black"/>
<path d="M321.993 135.276C321.993 135.276 334.916 133.246 334.218 154.688C333.52 176.13 335.58 189.817 330.383 193.842C325.185 197.868 308.302 216.114 304.483 216.262C300.665 216.41 294.526 215.883 292.264 216.736C290.003 217.588 288.677 203.108 288.677 203.108C288.677 203.108 290.026 198.467 296.047 195.939C302.067 193.411 316.251 184.448 316.133 181.393C316.015 178.338 312.545 167.765 312.545 167.765C312.545 167.765 307.72 141.948 321.993 135.276Z" fill="#575A89"/>
<path d="M290.202 121.2C299.488 121.2 307.016 113.673 307.016 104.387C307.016 95.1009 299.488 87.5733 290.202 87.5733C280.916 87.5733 273.389 95.1009 273.389 104.387C273.389 113.673 280.916 121.2 290.202 121.2Z" fill="#FFB9B9"/>
<path d="M278.881 80.2881C278.476 80.6375 277.99 80.8812 277.468 80.9976C277.205 81.0443 276.935 80.9854 276.716 80.8337C276.497 80.682 276.347 80.4498 276.299 80.1878C275.914 80.9855 275.48 81.8358 274.694 82.2451C273.909 82.6545 272.695 82.3112 272.581 81.4328C272.467 82.0998 272.172 82.7226 271.728 83.2338C271.241 83.6984 270.357 83.8157 269.932 83.2938C270.276 85.1735 270.063 87.1065 270.171 89.0143C270.28 90.9221 270.788 92.9446 272.23 94.1991C274.332 96.0287 277.493 95.5772 280.258 95.2305C280.676 95.1428 281.11 95.1665 281.516 95.2994C282.551 95.7405 282.504 97.1817 282.518 98.307C282.603 100.281 283.384 102.162 284.724 103.615C286.064 105.068 287.875 105.999 289.836 106.243C290.934 106.412 292.053 106.139 292.949 105.483C293.735 104.818 294.136 103.733 295.035 103.233C296.499 102.42 298.273 103.606 299.343 104.894C300.413 106.181 301.468 107.765 303.125 108.001C305.317 108.312 306.987 106.078 307.806 104.021C308.936 101.138 309.477 98.0582 309.398 94.9626C309.319 91.867 308.621 88.8185 307.345 85.997C302.768 76.0197 287.132 74.4416 278.881 80.2881Z" fill="#2F2E41"/>
<defs>
<linearGradient id="paint0_linear" x1="166.515" y1="177.893" x2="243.712" y2="177.893" gradientUnits="userSpaceOnUse">
<stop stop-color="#808080" stop-opacity="0.25"/>
<stop offset="0.53514" stop-color="#808080" stop-opacity="0.12"/>
<stop offset="1" stop-color="#808080" stop-opacity="0.1"/>
</linearGradient>
</defs>
</svg>
