<svg width="342" height="338" viewBox="0 0 342 338" fill="none" xmlns="http://www.w3.org/2000/svg">
<g clip-path="url(#clip0)">
<path d="M168.684 80.3214H166.825V29.4457C166.825 21.6365 163.72 14.1471 158.193 8.62513C152.666 3.10318 145.17 0.000976563 137.354 0.000976562H29.4716C21.6555 0.000976563 14.1596 3.10318 8.63275 8.62513C3.10592 14.1471 0.000976562 21.6365 0.000976562 29.4457V308.554C0.000976562 316.364 3.10592 323.853 8.63275 329.375C14.1596 334.897 21.6555 337.999 29.4716 337.999H137.354C145.17 337.999 152.666 334.897 158.193 329.375C163.72 323.853 166.824 316.364 166.824 308.554V116.536H168.684L168.684 80.3214Z" fill="#3F3D56"/>
<path d="M138.543 7.66074H124.461C125.109 9.24717 125.356 10.9685 125.182 12.673C125.007 14.3775 124.415 16.0129 123.458 17.435C122.502 18.8571 121.21 20.0224 119.696 20.8281C118.183 21.6338 116.494 22.0552 114.779 22.0552H52.9751C51.2604 22.0551 49.572 21.6336 48.0587 20.8279C46.5454 20.0223 45.2537 18.8571 44.2972 17.4352C43.3408 16.0132 42.749 14.3781 42.5741 12.6738C42.3991 10.9696 42.6463 9.24845 43.294 7.66213H30.1391C24.3019 7.66213 18.7038 9.97889 14.5763 14.1028C10.4488 18.2266 8.13 23.8198 8.13 29.6518V308.35C8.13 314.182 10.4488 319.775 14.5763 323.899C18.7038 328.022 24.3019 330.339 30.1391 330.339H138.539C144.376 330.339 149.974 328.022 154.102 323.899C158.229 319.775 160.548 314.182 160.548 308.35V308.35V29.6504C160.548 23.8184 158.229 18.2252 154.102 14.1014C149.974 9.9775 144.376 7.66074 138.539 7.66074H138.543Z" fill="white"/>
<path d="M146.762 62.4599H21.9222V275.54H146.762V62.4599Z" fill="#E6E6E6"/>
<path d="M84.5274 314.765C91.2021 314.765 96.6131 309.358 96.6131 302.69C96.6131 296.021 91.2021 290.614 84.5274 290.614C77.8526 290.614 72.4416 296.021 72.4416 302.69C72.4416 309.358 77.8526 314.765 84.5274 314.765Z" fill="#E6E6E6"/>
<path d="M142.299 298.349L140.919 311.684L148.742 310.764L149.663 299.728L142.299 298.349Z" fill="#FFB9B9"/>
<path d="M121.59 197.188C121.59 197.188 81.5496 235.813 106.862 247.768H114.686C114.686 247.768 131.714 219.717 139.999 220.179L142.3 246.849L140.919 300.648L151.044 301.108C151.044 301.108 157.027 273.978 156.567 258.804L167.152 202.705L121.59 197.188Z" fill="#2F2E41"/>
<path d="M109.162 245.929L114.685 247.768C114.685 247.768 136.316 242.71 137.694 243.17L141.977 243.141L141.838 232.134H123.43L109.162 245.929Z" fill="#2F2E41"/>
<path d="M149.663 308.925C149.663 308.925 141.378 305.246 139.998 308.925C138.617 312.604 139.077 323.18 139.077 323.18C140.181 325.301 140.507 327.741 139.998 330.077C139.077 333.756 143.68 335.595 149.663 333.756C155.646 331.916 155.646 327.318 155.646 327.318L149.663 308.925Z" fill="#2F2E41"/>
<path d="M156.566 231.212C156.566 231.212 163.009 227.534 162.549 233.052C162.167 236.696 161.236 240.261 159.787 243.627C159.787 243.627 165.77 259.262 159.787 260.641C153.804 262.02 149.202 258.802 149.202 256.502C149.202 254.203 156.566 231.212 156.566 231.212Z" fill="#2F2E41"/>
<path d="M136.316 105.223L137.237 122.697L145.06 129.593L153.805 117.178V104.763L136.316 105.223Z" fill="#FFB9B9"/>
<path d="M142.299 122.696L137.03 118.785L133.555 124.075L117.907 133.271L127.111 157.182L127.571 180.633C127.571 180.633 110.542 198.106 120.667 200.406C130.793 202.705 166.69 207.763 168.531 203.624C170.372 199.486 166.23 156.722 166.23 156.722L167.611 120.396L153.805 115.409L142.299 122.696Z" fill="black"/>
<path d="M114.225 151.819C114.225 151.819 110.543 177.873 117.447 177.873C121.546 177.887 125.61 177.107 129.412 175.574L123.89 161.32L126.191 151.663L114.225 151.819Z" fill="#FFB9B9"/>
<path d="M124.81 174.656L129.873 175.576C129.873 175.576 144.6 166.38 145.52 165.919C146.441 165.459 130.793 157.642 130.793 157.642L120.208 161.781L124.81 174.656Z" fill="#FFB9B9"/>
<path opacity="0.1" d="M130.793 157.642L124.146 160.241L126.191 151.665L114.225 151.819C114.225 151.819 110.543 177.873 117.447 177.873C121.547 177.887 125.611 177.106 129.413 175.574L129.378 175.484L129.873 175.574C129.873 175.574 144.601 166.378 145.521 165.918C146.441 165.457 130.793 157.642 130.793 157.642Z" fill="black"/>
<path d="M146.963 113.942C154.221 113.942 160.105 108.063 160.105 100.811C160.105 93.5598 154.221 87.6811 146.963 87.6811C139.705 87.6811 133.821 93.5598 133.821 100.811C133.821 108.063 139.705 113.942 146.963 113.942Z" fill="#FFB9B9"/>
<path d="M135.344 85.9985L132.776 84.9716C132.776 84.9716 138.145 79.066 145.614 79.5796L143.513 77.2686C143.513 77.2686 148.649 75.2145 153.317 80.6065C155.771 83.4395 158.611 86.7727 160.383 90.5257H163.133L161.985 93.0504L166.001 95.5764L161.878 95.1226C162.268 97.3024 162.134 99.5437 161.488 101.662L161.598 103.659C161.598 103.659 156.819 96.2712 156.819 95.2443V97.8121C156.819 97.8121 154.251 95.5011 154.251 93.9606L152.851 95.758L152.148 92.9291L143.512 95.7533L144.912 93.4423L139.544 94.2128L141.645 91.3886C141.645 91.3886 135.576 94.7265 135.342 97.5511C135.108 100.376 132.074 103.97 132.074 103.97L130.673 101.402C130.673 101.402 128.574 89.85 135.344 85.9985Z" fill="#2F2E41"/>
<path d="M158.407 143.848C156.084 146.715 154.788 150.276 154.725 153.964L130.332 153.045C130.332 153.045 123.889 152.125 123.889 156.723V161.321C123.889 161.321 127.111 159.942 128.952 161.321C130.793 162.701 150.582 174.656 160.247 170.058C169.912 165.46 172.213 147.527 172.213 147.527C172.213 147.527 163.469 140.169 158.407 143.848Z" fill="#FFB9B9"/>
<path d="M163.932 120.857L167.614 120.397C167.614 120.397 174.977 121.316 174.057 135.571C173.136 149.826 172.676 150.745 172.676 150.745C172.676 150.745 163.011 142.008 156.108 146.147L163.932 120.857Z" fill="black"/>
<path d="M119.748 133.273H117.907C115.522 136.284 114.224 140.01 114.225 143.849C114.183 147.961 113.642 152.053 112.614 156.035L127.111 153.506L119.748 133.273Z" fill="black"/>
<path d="M342 62.4479H208.363V88.8092H342V62.4479Z" fill="#E6E6E6"/>
<path d="M211.212 85.9632H339.151V65.2962H211.212V85.9632Z" fill="white"/>
<path d="M222.412 67.5835C223.971 67.5835 225.494 68.0453 226.79 68.9106C228.087 69.7758 229.097 71.0056 229.693 72.4445C230.29 73.8833 230.446 75.4666 230.142 76.9941C229.838 78.5215 229.087 79.9246 227.985 81.0259C226.883 82.1271 225.478 82.8771 223.949 83.1809C222.421 83.4847 220.836 83.3288 219.396 82.7328C217.956 82.1368 216.725 81.1275 215.859 79.8326C214.993 78.5377 214.531 77.0153 214.531 75.4579C214.531 73.3694 215.361 71.3666 216.839 69.8898C218.317 68.4131 220.322 67.5835 222.412 67.5835V67.5835Z" fill="black"/>
<path d="M319.042 72.3764H241.258V74.0883H319.042V72.3764Z" fill="#E6E6E6"/>
<path d="M319.042 76.827H241.258V78.5388H319.042V76.827Z" fill="#E6E6E6"/>
<path d="M342 100.066H208.363V126.428H342V100.066Z" fill="#E6E6E6"/>
<path d="M211.212 123.582H339.151V102.915H211.212V123.582Z" fill="white"/>
<path d="M222.412 120.951C226.765 120.951 230.293 117.425 230.293 113.076C230.293 108.728 226.765 105.202 222.412 105.202C218.059 105.202 214.531 108.728 214.531 113.076C214.531 117.425 218.059 120.951 222.412 120.951Z" fill="black"/>
<path d="M319.042 109.995H241.258V111.707H319.042V109.995Z" fill="#E6E6E6"/>
<path d="M319.042 114.446H241.258V116.157H319.042V114.446Z" fill="#E6E6E6"/>
<path d="M342 137.685H208.363V164.046H342V137.685Z" fill="#E6E6E6"/>
<path d="M211.212 161.2H339.151V140.533H211.212V161.2Z" fill="white"/>
<path d="M222.412 158.569C226.765 158.569 230.293 155.044 230.293 150.695C230.293 146.346 226.765 142.821 222.412 142.821C218.059 142.821 214.531 146.346 214.531 150.695C214.531 155.044 218.059 158.569 222.412 158.569Z" fill="black"/>
<path d="M319.042 147.614H241.258V149.325H319.042V147.614Z" fill="#E6E6E6"/>
<path d="M319.042 152.064H241.258V153.776H319.042V152.064Z" fill="#E6E6E6"/>
</g>
<defs>
<clipPath id="clip0">
<rect width="342" height="338" fill="white"/>
</clipPath>
</defs>
</svg>
