<svg width="339" height="339" viewBox="0 0 339 339" fill="none" xmlns="http://www.w3.org/2000/svg">
<path d="M10.5748 98.2365C9.30336 98.6353 7.94946 98.6915 6.64945 98.3994C5.34944 98.1073 4.14925 97.4772 3.16978 96.5725C2.19031 95.6679 1.46615 94.5207 1.07024 93.2465C0.674337 91.9723 0.62067 90.6161 0.914651 89.3146C5.32559 70.9342 22.098 25.9851 83.2006 7.07954C109.668 -1.10968 135.051 -1.24949 158.612 6.66093C177.995 13.1417 190.863 23.2832 197.018 28.185C198.582 29.4242 199.59 31.235 199.821 33.2189C200.052 35.2028 199.487 37.1973 198.25 38.7637C198.234 38.7831 198.219 38.8024 198.203 38.8216C196.933 40.3929 195.097 41.4011 193.091 41.6292C191.085 41.8572 189.07 41.2868 187.481 40.0408C176.329 31.24 142.488 4.50346 87.6399 21.4737C34.0847 38.0441 19.537 76.8032 15.7637 92.6607C15.4771 93.9706 14.8443 95.1793 13.9315 96.1602C13.0186 97.1411 11.8593 97.8583 10.5748 98.2365L10.5748 98.2365Z" fill="black"/>
<path d="M177.115 202.343C176.508 202.54 175.879 202.658 175.242 202.696C127.507 205.271 97.1357 165.55 95.8888 163.894L95.6577 163.512C94.8966 162.329 76.5197 134.324 84.6099 112.083C88.3258 101.915 96.5441 94.7781 109.106 90.8914C120.789 87.2767 130.349 88.3458 138.486 94.1657C145.158 98.9075 149.434 105.979 153.579 112.807C162.198 126.986 167.481 134.199 183.865 130.037C191.059 128.208 194.418 122.575 195.952 118.187C200.084 106.245 196.422 89.9656 186.735 77.649C174.219 61.6702 139.192 35.1301 95.9756 48.5016C77.5208 54.2116 62.4175 65.4641 52.3031 80.9581C43.9241 93.8167 39.053 109.787 38.9463 124.68C38.7781 152.411 61.4684 188.893 61.6836 189.224C62.2061 190.061 62.5588 190.993 62.7217 191.966C62.8846 192.94 62.8545 193.936 62.633 194.898C62.4115 195.86 62.0031 196.769 61.431 197.572C60.8589 198.376 60.1343 199.059 59.2987 199.582C59.2755 199.597 59.2522 199.611 59.2289 199.626C57.5168 200.695 55.4534 201.047 53.4843 200.606C51.5152 200.164 49.7985 198.965 48.7048 197.267C47.6807 195.598 23.4523 156.699 23.6475 124.649C23.9192 89.9104 44.9956 48.4507 91.5204 34.0556C113.025 27.4018 135.625 28.5202 156.892 37.2539C173.376 44.0646 188.631 55.339 198.717 68.2128C211.6 84.6455 216.139 106.155 210.274 122.944C206.364 134.136 198.27 141.858 187.513 144.62C159.477 151.763 148.494 133.778 140.484 120.659C132.259 107.209 127.709 100.903 113.493 105.302C105.688 107.717 100.879 111.587 98.8562 117.147C96.104 124.748 98.7123 134.491 101.385 141.321C101.413 141.392 101.44 141.463 101.468 141.534C104.895 150.216 110.242 158.006 117.108 164.318C128.107 174.491 148.525 188.995 174.549 187.596C176.539 187.472 178.496 188.145 179.99 189.467C181.484 190.788 182.393 192.65 182.517 194.643C182.518 194.667 182.519 194.691 182.521 194.715C182.582 196.405 182.085 198.068 181.108 199.446C180.131 200.825 178.728 201.843 177.115 202.343L177.115 202.343Z" fill="black"/>
<path d="M119.23 216.623C118.235 216.932 117.188 217.035 116.152 216.927C115.116 216.818 114.112 216.5 113.203 215.993C89.6588 202.632 73.1308 184.661 61.229 159.474L61.1811 159.319C53.6801 142.525 49.1647 116.868 59.125 95.1823C66.4782 79.1813 80.2808 67.9343 100.08 61.8084C123.497 54.5629 145.302 59.8975 163.197 77.1613C171.336 85.1291 177.954 94.5179 182.727 104.866C183.488 106.728 183.487 108.815 182.723 110.676C181.96 112.536 180.496 114.021 178.648 114.809C176.799 115.597 174.716 115.625 172.848 114.886C170.98 114.148 169.477 112.702 168.664 110.862C164.623 102.225 159.043 94.3991 152.198 87.7677C138.404 74.623 122.369 70.7363 104.483 76.2704C89.0267 81.0528 78.3834 89.5073 72.935 101.402C65.0778 118.523 69.1232 139.903 74.9932 153.06C85.4875 175.336 100.044 191.138 120.766 202.876C121.622 203.36 122.374 204.007 122.98 204.782C123.586 205.557 124.034 206.444 124.298 207.392C124.562 208.34 124.637 209.331 124.519 210.308C124.4 211.285 124.091 212.229 123.608 213.087C123.589 213.121 123.569 213.154 123.55 213.188C122.585 214.83 121.045 216.054 119.23 216.623V216.623Z" fill="black"/>
<path d="M121.709 141.327C127.088 141.327 131.448 136.96 131.448 131.573C131.448 126.185 127.088 121.818 121.709 121.818C116.33 121.818 111.97 126.185 111.97 131.573C111.97 136.96 116.33 141.327 121.709 141.327Z" fill="#E6E6E6"/>
<path d="M291.48 327.568H302.327L312.141 258.808L319.372 219.001L293.546 213.314L293.288 248.986L291.48 327.568Z" fill="#9F616A"/>
<path d="M256.614 327.568H268.494L278.308 258.808L285.54 219.001L259.713 213.314L259.455 248.986L256.614 327.568Z" fill="#9F616A"/>
<path d="M253.773 251.829L284.765 257.516L289.93 248.21L290.963 256.999L320.405 258.033L321.438 186.172L262.554 183.069L253.773 251.829Z" fill="#2F2E41"/>
<path d="M243.951 338.166H267.697C268.662 338.166 269.587 337.783 270.27 337.1C270.952 336.417 271.335 335.491 271.335 334.525V327.579C271.335 327.182 271.257 326.789 271.105 326.422C270.953 326.055 270.731 325.722 270.45 325.441C270.17 325.16 269.837 324.938 269.47 324.786C269.104 324.634 268.711 324.556 268.314 324.556C265.423 327.388 262.092 327.164 258.417 324.556L258.238 323.54C258.151 323.049 257.938 322.589 257.62 322.205C257.303 321.822 256.89 321.527 256.424 321.352C255.958 321.176 255.455 321.124 254.963 321.202C254.471 321.28 254.008 321.485 253.619 321.796L247.198 326.937L245.44 326.481C244.563 326.254 243.646 326.23 242.759 326.412C241.871 326.595 241.037 326.978 240.321 327.533C239.605 328.088 239.025 328.799 238.626 329.613C238.227 330.427 238.019 331.322 238.019 332.229V332.229C238.019 333.008 238.173 333.78 238.471 334.501C238.769 335.221 239.206 335.876 239.757 336.427C240.308 336.978 240.962 337.416 241.681 337.714C242.401 338.013 243.172 338.166 243.951 338.166V338.166Z" fill="#2F2E41"/>
<path d="M278.559 338.166H302.305C303.269 338.166 304.195 337.783 304.877 337.1C305.559 336.417 305.942 335.491 305.942 334.525V327.579C305.942 327.182 305.864 326.789 305.712 326.422C305.561 326.055 305.338 325.722 305.058 325.441C304.777 325.16 304.444 324.938 304.078 324.786C303.711 324.634 303.318 324.556 302.922 324.556C300.03 327.388 296.699 327.164 293.024 324.556L292.845 323.54C292.758 323.049 292.546 322.589 292.228 322.205C291.91 321.822 291.498 321.527 291.032 321.352C290.566 321.176 290.062 321.124 289.57 321.202C289.078 321.28 288.615 321.485 288.226 321.796L281.805 326.937L280.047 326.481C279.17 326.254 278.253 326.23 277.366 326.412C276.478 326.595 275.645 326.978 274.928 327.533C274.212 328.088 273.632 328.799 273.233 329.613C272.834 330.427 272.626 331.322 272.626 332.229V332.229C272.626 333.008 272.78 333.78 273.078 334.501C273.376 335.221 273.813 335.876 274.364 336.427C274.915 336.978 275.569 337.416 276.288 337.714C277.008 338.013 277.78 338.166 278.559 338.166V338.166Z" fill="#2F2E41"/>
<path d="M274.951 50.2035C264.396 50.2035 255.839 41.6393 255.839 31.0749C255.839 20.5104 264.396 11.9463 274.951 11.9463C285.506 11.9463 294.062 20.5104 294.062 31.0749C294.062 41.6393 285.506 50.2035 274.951 50.2035Z" fill="#9F616A"/>
<path d="M286.314 62.6113L303.876 57.9581L291.48 31.0751L274.951 42.9658L286.314 62.6113Z" fill="#9F616A"/>
<path d="M260.488 189.273C276.016 180.995 286.769 186.077 300.715 196.094C311.575 203.896 326.904 195.241 339 192.892L329.634 86.1065C328.889 77.6117 325.655 69.5261 320.338 62.8633C315.021 56.2005 307.857 51.257 299.744 48.6525V48.6525L282.699 56.4074C274.837 67.611 272.331 91.0865 268.236 118.446C264.704 142.048 263.439 163.177 260.488 189.273Z" fill="black"/>
<path d="M279.083 175.315L276.683 188.225C276.459 189.429 276.482 190.666 276.749 191.86C277.016 193.055 277.522 194.183 278.237 195.177C278.952 196.17 279.86 197.008 280.908 197.641C281.955 198.273 283.12 198.686 284.331 198.855C285.774 199.057 287.244 198.907 288.616 198.418C289.989 197.929 291.223 197.116 292.214 196.048C293.206 194.98 293.925 193.688 294.31 192.282C294.696 190.876 294.737 189.398 294.43 187.972L291.48 174.281L305.942 117.929L303.876 97.7664L283.215 97.2494C281.249 103.182 281.953 109.406 284.765 115.861L279.083 175.315Z" fill="#9F616A"/>
<path d="M285.998 33.4421C284.483 33.3516 283.004 33.8641 281.499 34.064C276.117 34.7793 270.517 30.8699 269.329 25.567C269.233 24.8608 269.023 24.1751 268.706 23.537C267.878 22.1833 265.991 21.9252 264.436 22.2365C262.881 22.5477 261.406 23.2763 259.822 23.3595C257.377 23.4879 255.029 21.981 253.726 19.9059C252.494 17.765 251.97 15.2893 252.229 12.8325L253.402 14.0641C253.878 13.0554 254.062 11.933 253.933 10.8248C254.554 10.6592 255.207 10.656 255.83 10.8156C256.453 10.9751 257.024 11.292 257.49 11.7359C258.524 11.846 257.743 9.81673 258.511 9.11543C258.885 8.88574 259.33 8.80239 259.761 8.88139C261.961 8.90262 263.74 7.219 265.473 5.86369C268.475 3.52063 271.987 1.91755 275.723 1.18398C278.206 0.69919 280.847 0.621287 283.202 1.54684C285.103 2.40102 286.819 3.61921 288.253 5.13279C291.94 8.68136 295.205 12.8508 296.739 17.7349C297.986 21.7354 298.021 26.0159 296.84 30.0364C296.222 32.1244 294.359 39.2752 291.632 39.4417C288.206 39.651 290.263 33.6968 285.998 33.4421Z" fill="#2F2E41"/>
<path d="M277.533 107.072C287.758 99.48 298.413 97.9926 309.558 103.453L305.132 73.9226C304.639 70.6329 302.983 67.6296 300.465 65.4589C297.946 63.2881 294.733 62.0942 291.41 62.0942V62.0942C287.729 62.0942 284.2 63.5575 281.598 66.1621C278.995 68.7667 277.533 72.2994 277.533 75.9829L277.533 107.072Z" fill="black"/>
</svg>
