<svg width="379" height="380" viewBox="0 0 379 380" fill="none" xmlns="http://www.w3.org/2000/svg">
<g clip-path="url(#clip0)">
<path d="M379 0H152.924C151.187 10.5816 150.316 21.2869 150.319 32.0099C150.319 140.257 238.14 228.009 346.472 228.009C357.37 228.013 368.25 227.115 379 225.325V0Z" fill="#2F2E41"/>
<path d="M283.313 122.528C279.92 122.531 276.554 121.924 273.376 120.736C273.194 120.668 273.027 120.565 272.885 120.433C272.744 120.3 272.629 120.141 272.549 119.965C272.468 119.788 272.424 119.597 272.417 119.403C272.41 119.21 272.442 119.016 272.51 118.835C272.578 118.653 272.682 118.486 272.814 118.345C272.947 118.203 273.106 118.089 273.283 118.008C273.459 117.928 273.65 117.883 273.844 117.877C274.038 117.87 274.232 117.902 274.413 117.97C278.627 119.526 283.173 119.957 287.604 119.22C292.035 118.483 296.197 116.604 299.679 113.769C288.817 113.884 278.193 108.755 272.907 100.525C269.51 95.2345 268.399 89.009 269.694 82.5214C270.686 77.8169 272.722 73.3948 275.652 69.5814C270.057 71.3601 265.243 75.0024 262.011 79.9004C258.78 84.7984 257.328 90.6556 257.898 96.4943C257.918 96.6877 257.899 96.8831 257.843 97.0693C257.787 97.2556 257.695 97.4289 257.572 97.5795C257.449 97.7301 257.297 97.8549 257.126 97.9468C256.954 98.0387 256.766 98.0959 256.573 98.1151C256.379 98.1343 256.184 98.1151 255.997 98.0586C255.811 98.0021 255.638 97.9095 255.488 97.786C255.337 97.6625 255.213 97.5105 255.122 97.3389C255.03 97.1672 254.974 96.9792 254.955 96.7857C254.237 89.4399 256.39 82.1012 260.964 76.3057C265.538 70.5102 272.178 66.7073 279.495 65.6929C279.801 65.6504 280.112 65.7046 280.386 65.8481C280.659 65.9915 280.881 66.2169 281.02 66.4927C281.158 66.7684 281.207 67.0807 281.159 67.3855C281.111 67.6904 280.969 67.9726 280.752 68.1925C273.19 75.8677 268.601 88.3482 275.396 98.9294C280.757 107.276 292.292 112.05 303.453 110.541C303.752 110.501 304.057 110.553 304.326 110.691C304.595 110.829 304.815 111.045 304.957 111.312C305.098 111.578 305.155 111.882 305.119 112.182C305.083 112.481 304.956 112.763 304.755 112.988C302.052 115.995 298.746 118.398 295.051 120.042C291.357 121.686 287.357 122.533 283.313 122.528V122.528Z" fill="black"/>
<path d="M259.731 123.115C257.587 123.115 255.49 122.48 253.707 121.289C251.924 120.099 250.534 118.407 249.714 116.427C248.893 114.447 248.678 112.269 249.097 110.167C249.515 108.066 250.548 106.135 252.064 104.62C253.581 103.105 255.513 102.073 257.616 101.655C259.719 101.237 261.899 101.451 263.88 102.271C265.862 103.091 267.555 104.48 268.746 106.262C269.938 108.043 270.574 110.138 270.574 112.281C270.57 115.153 269.427 117.907 267.394 119.938C265.362 121.969 262.606 123.112 259.731 123.115V123.115ZM259.731 104.402C258.171 104.402 256.647 104.864 255.35 105.729C254.053 106.595 253.043 107.826 252.446 109.266C251.849 110.705 251.693 112.29 251.997 113.818C252.301 115.347 253.052 116.75 254.155 117.852C255.258 118.954 256.663 119.705 258.193 120.009C259.722 120.313 261.308 120.157 262.749 119.56C264.19 118.964 265.421 117.954 266.288 116.658C267.154 115.363 267.617 113.839 267.617 112.281C267.614 110.192 266.783 108.189 265.304 106.712C263.826 105.235 261.822 104.404 259.731 104.402V104.402Z" fill="black"/>
<path d="M4.28321 279.263C3.57091 279.152 2.89058 278.89 2.28771 278.495C1.68485 278.1 1.17336 277.581 0.787433 276.973C0.401506 276.364 0.150041 275.68 0.0498618 274.967C-0.0503172 274.254 0.00309939 273.527 0.206531 272.836L4.04499 259.795L9.87767 260.888L10.1284 274.168C10.1424 274.907 9.99434 275.639 9.69474 276.315C9.39513 276.99 8.95123 277.591 8.39418 278.077C7.83713 278.563 7.18044 278.92 6.47025 279.125C5.76006 279.33 5.01357 279.377 4.28321 279.263V279.263Z" fill="#9F616A"/>
<path d="M37.9473 362.516L30.6566 361.423L32.4791 290.393L22.2723 320.99L16.8041 363.973L9.87765 362.152L8.41931 317.348L16.4394 264.531L56.5389 273.637L37.9473 362.516Z" fill="#2F2E41"/>
<path d="M34.6001 380C33.1789 380 31.8159 379.436 30.811 378.432C29.806 377.428 29.2415 376.066 29.2415 374.646C29.2415 374.471 29.25 374.296 29.2672 374.121L30.3993 362.62C30.4266 362.345 30.5211 362.081 30.6743 361.851C30.8276 361.622 31.035 361.433 31.2784 361.301C33.4276 360.143 35.6376 360.424 37.8996 361.936C38.1003 362.071 38.2694 362.248 38.3953 362.454C38.5213 362.661 38.6011 362.892 38.6293 363.132L39.9214 374.015C40.0106 374.766 39.9395 375.527 39.7129 376.249C39.4862 376.971 39.109 377.636 38.6063 378.202C38.1035 378.767 37.4866 379.22 36.796 379.53C36.1055 379.84 35.3571 380 34.6001 380H34.6001Z" fill="#2F2E41"/>
<path d="M4.84018 379.144C4.15311 378.892 3.53232 378.488 3.02474 377.961C2.51717 377.434 2.13611 376.799 1.91037 376.103C1.68463 375.408 1.62013 374.67 1.72175 373.946C1.82336 373.222 2.08843 372.53 2.4969 371.923L10.2741 360.372C13.0776 358.362 14.7685 359.341 15.4259 363.097L16.9982 359.161L18.1829 360.452C18.7841 361.107 19.1338 361.954 19.1703 362.842C19.2068 363.73 18.9277 364.603 18.3824 365.305L10.3155 377.572C9.68774 378.381 8.81891 378.969 7.83464 379.251C6.85037 379.534 5.80167 379.496 4.84018 379.144V379.144Z" fill="#2F2E41"/>
<path d="M53.9873 196.051C60.0272 196.051 64.9236 191.158 64.9236 185.123C64.9236 179.088 60.0272 174.195 53.9873 174.195C47.9474 174.195 43.051 179.088 43.051 185.123C43.051 191.158 47.9474 196.051 53.9873 196.051Z" fill="#9F616A"/>
<path d="M60.9136 205.157L42.3219 201.514C44.7166 196.411 46.6344 194.684 44.5091 189.13H59.4554C58.1373 194.883 59.4111 200.283 60.9136 205.157Z" fill="#9F616A"/>
<path d="M58.7264 278.737L14.9813 266.352C23.7435 247.082 25.5788 225.926 22.9808 203.561C22.9191 203.034 22.962 202.499 23.107 201.988C23.2521 201.476 23.4965 200.999 23.8264 200.582C24.1562 200.165 24.565 199.817 25.0294 199.558C25.4937 199.299 26.0047 199.134 26.5329 199.072C26.5821 199.066 26.6313 199.062 26.6807 199.058C32.3868 198.588 38.3358 197.985 44.5092 197.143L51.4355 201.879L59.4554 200.057C62.0289 201.304 64.621 202.34 66.9603 203.374C69.0929 204.318 70.797 206.023 71.7401 208.154C72.6833 210.286 72.7978 212.693 72.0615 214.904C64.9337 236.413 60.1624 257.719 58.7264 278.737Z" fill="#E6E6E6"/>
<path d="M10.9713 262.345L2.58679 261.252L22.4496 204.066C23.4599 201.157 25.9656 199.582 29.0161 199.147L31.9325 199.511L29.7452 233.387L10.9713 262.345Z" fill="#E6E6E6"/>
<path d="M76.6499 251.413C75.2538 251.52 73.8594 251.184 72.6658 250.453C71.4722 249.721 70.5403 248.632 70.0032 247.339L62.0073 228.105L68.569 204.428L70.3036 205.531C70.4707 205.638 70.6357 205.747 70.7984 205.858C73.2336 207.563 75.1306 209.927 76.2659 212.673C77.4012 215.419 77.7276 218.432 77.2067 221.356L75.4953 231.383L82.5545 246.528C82.1957 247.852 81.4354 249.032 80.3781 249.907C79.3208 250.782 78.0184 251.308 76.6499 251.413V251.413Z" fill="#E6E6E6"/>
<path d="M54.8284 168.927C56.697 169.013 58.5173 169.548 60.1343 170.488C60.5061 170.704 60.3342 171.484 60.6779 171.738C61.1107 172.059 62.0505 171.864 62.4338 172.239C63.6709 173.446 64.6235 174.913 65.2221 176.534C65.8208 178.155 66.0506 179.888 65.8948 181.609L65.2845 187.672L63.8449 186.099C61.2638 183.239 57.6804 181.481 53.8374 181.189C53.6741 181.178 53.5106 181.169 53.3467 181.163L54.4543 179.227L52.5294 181.15C51.6514 181.159 50.7751 181.231 49.907 181.363L51.3799 178.788L48.5539 181.611L48.5536 181.612C47.3979 181.866 46.318 182.387 45.401 183.135C44.4839 183.882 43.7554 184.834 43.274 185.914L42.9603 186.609L42.6087 180.826C42.5415 177.734 43.7059 174.743 45.8459 172.51C47.9859 170.276 50.9262 168.984 54.0199 168.917C54.2894 168.911 54.5589 168.914 54.8284 168.927Z" fill="#2F2E41"/>
<path d="M64.995 189.32C65.4801 189.32 65.8734 188.387 65.8734 187.236C65.8734 186.084 65.4801 185.151 64.995 185.151C64.5099 185.151 64.1166 186.084 64.1166 187.236C64.1166 188.387 64.5099 189.32 64.995 189.32Z" fill="#9F616A"/>
<path d="M43.0351 188.662C43.5203 188.662 43.9135 187.729 43.9135 186.577C43.9135 185.426 43.5203 184.493 43.0351 184.493C42.55 184.493 42.1567 185.426 42.1567 186.577C42.1567 187.729 42.55 188.662 43.0351 188.662Z" fill="#9F616A"/>
<path d="M85.7719 214.426C86.4722 214.598 87.1278 214.916 87.695 215.361C88.2621 215.806 88.7276 216.366 89.0605 217.006C89.3933 217.645 89.5858 218.347 89.625 219.066C89.6642 219.786 89.5493 220.505 89.2879 221.177L84.3555 233.844L78.6367 232.261L79.515 219.007C79.5638 218.27 79.7735 217.553 80.1294 216.906C80.4853 216.258 80.9787 215.696 81.575 215.26C82.1713 214.823 82.856 214.522 83.581 214.379C84.3061 214.235 85.0539 214.251 85.7719 214.426H85.7719Z" fill="#9F616A"/>
<path d="M79.1409 250.689L70.0272 244.861L77.6825 229.198L87.1605 232.84L82.4218 246.682L79.1409 250.689Z" fill="#E6E6E6"/>
<path d="M85.2632 201.466V139.859H84.2775V201.466C83.6792 201.588 83.1475 201.928 82.7856 202.419C82.4237 202.911 82.2573 203.519 82.3186 204.126C82.38 204.733 82.6648 205.296 83.1178 205.705C83.5708 206.114 84.1597 206.341 84.7704 206.341C85.3811 206.341 85.97 206.114 86.423 205.705C86.876 205.296 87.1608 204.733 87.2221 204.126C87.2835 203.519 87.1171 202.911 86.7552 202.419C86.3932 201.928 85.8616 201.588 85.2632 201.466V201.466ZM84.7704 205.356C84.478 205.356 84.1921 205.269 83.9489 205.107C83.7058 204.944 83.5163 204.714 83.4044 204.444C83.2925 204.174 83.2632 203.877 83.3203 203.59C83.3773 203.304 83.5181 203.04 83.7249 202.834C83.9317 202.627 84.1951 202.486 84.4819 202.429C84.7687 202.372 85.066 202.402 85.3362 202.514C85.6064 202.625 85.8373 202.815 85.9997 203.058C86.1622 203.301 86.2489 203.586 86.2489 203.878C86.2485 204.27 86.0926 204.646 85.8154 204.923C85.5382 205.2 85.1624 205.355 84.7704 205.356V205.356Z" fill="#3F3D56"/>
<path d="M83.9981 81.0437C83.4343 81.0437 82.8935 80.8199 82.4948 80.4215C82.0961 80.0231 81.8721 79.4828 81.8721 78.9194V72.5462C81.8729 71.9833 82.0973 71.4438 82.4959 71.0461C82.8945 70.6484 83.4348 70.425 83.9981 70.425C84.5614 70.425 85.1017 70.6484 85.5003 71.0461C85.899 71.4438 86.1233 71.9833 86.1242 72.5462V78.9194C86.1242 79.1983 86.0692 79.4746 85.9624 79.7323C85.8555 79.9901 85.6989 80.2243 85.5015 80.4215C85.304 80.6188 85.0697 80.7753 84.8117 80.882C84.5538 80.9888 84.2773 81.0437 83.9981 81.0437V81.0437Z" fill="black"/>
<path d="M83.9981 129.905C83.7189 129.905 83.4425 129.85 83.1845 129.743C82.9266 129.636 82.6922 129.48 82.4948 129.283C82.2973 129.085 82.1407 128.851 82.0339 128.593C81.927 128.336 81.8721 128.059 81.8721 127.78V121.407C81.8716 121.128 81.9263 120.851 82.033 120.593C82.1396 120.335 82.2962 120.101 82.4936 119.903C82.6911 119.705 82.9256 119.549 83.1838 119.442C83.4419 119.335 83.7186 119.28 83.9981 119.28C84.2776 119.28 84.5543 119.335 84.8125 119.442C85.0706 119.549 85.3051 119.705 85.5026 119.903C85.7001 120.101 85.8566 120.335 85.9633 120.593C86.0699 120.851 86.1246 121.128 86.1242 121.407V127.78C86.1242 128.059 86.0692 128.336 85.9624 128.593C85.8555 128.851 85.6989 129.085 85.5015 129.283C85.3041 129.48 85.0697 129.636 84.8117 129.743C84.5538 129.85 84.2773 129.905 83.9981 129.905V129.905Z" fill="black"/>
<path d="M99.032 87.2655C98.6115 87.2655 98.2005 87.1409 97.8509 86.9075C97.5012 86.674 97.2287 86.3422 97.0678 85.9541C96.9069 85.5659 96.8648 85.1387 96.9469 84.7266C97.0289 84.3146 97.2314 83.936 97.5287 83.6389L102.039 79.1326C102.437 78.7346 102.978 78.5111 103.542 78.5113C104.105 78.5114 104.646 78.7353 105.045 79.1335C105.443 79.5318 105.667 80.0719 105.667 80.6351C105.667 81.1983 105.444 81.7385 105.045 82.137L100.535 86.6433C100.338 86.8409 100.104 86.9975 99.8458 87.1043C99.5878 87.2111 99.3113 87.2659 99.032 87.2655V87.2655Z" fill="black"/>
<path d="M64.4543 121.816C64.0338 121.816 63.6228 121.692 63.2732 121.458C62.9236 121.225 62.6511 120.893 62.4902 120.505C62.3292 120.117 62.2871 119.689 62.3691 119.277C62.4512 118.865 62.6536 118.487 62.9509 118.19L67.4608 113.683C67.8595 113.285 68.4003 113.061 68.9642 113.061C69.528 113.061 70.0688 113.285 70.4675 113.683C70.8663 114.082 71.0903 114.622 71.0903 115.185C71.0903 115.749 70.8663 116.289 70.4676 116.687L65.9577 121.194C65.7605 121.391 65.5262 121.548 65.2681 121.655C65.0101 121.762 64.7336 121.816 64.4543 121.816V121.816Z" fill="black"/>
<path d="M111.637 102.288H105.259C104.695 102.287 104.156 102.063 103.757 101.664C103.359 101.266 103.136 100.726 103.136 100.163C103.136 99.6004 103.359 99.0605 103.757 98.6622C104.156 98.2639 104.695 98.0397 105.259 98.0389H111.637C111.916 98.0385 112.193 98.0931 112.452 98.1997C112.71 98.3062 112.945 98.4626 113.142 98.66C113.34 98.8573 113.497 99.0916 113.604 99.3496C113.711 99.6075 113.766 99.884 113.766 100.163C113.766 100.443 113.711 100.719 113.604 100.977C113.497 101.235 113.34 101.469 113.142 101.667C112.945 101.864 112.71 102.02 112.452 102.127C112.193 102.233 111.916 102.288 111.637 102.288V102.288Z" fill="black"/>
<path d="M62.7375 102.288H56.3593C56.0799 102.288 55.803 102.233 55.5447 102.127C55.2864 102.02 55.0517 101.864 54.8539 101.667C54.6561 101.469 54.4992 101.235 54.3922 100.977C54.2851 100.719 54.23 100.443 54.23 100.163C54.23 99.884 54.2851 99.6075 54.3922 99.3496C54.4992 99.0916 54.6561 98.8573 54.8539 98.66C55.0517 98.4626 55.2864 98.3062 55.5447 98.1997C55.803 98.0931 56.0799 98.0385 56.3593 98.0389H62.7375C63.3008 98.0397 63.8408 98.2639 64.2388 98.6622C64.6368 99.0605 64.8603 99.6004 64.8603 100.163C64.8603 100.726 64.6368 101.266 64.2388 101.664C63.8408 102.063 63.3008 102.287 62.7375 102.288H62.7375Z" fill="black"/>
<path d="M103.542 121.816C103.263 121.816 102.986 121.762 102.728 121.655C102.47 121.548 102.236 121.391 102.039 121.194L97.5287 116.687C97.3309 116.49 97.1739 116.256 97.0668 115.998C96.9597 115.74 96.9045 115.464 96.9043 115.185C96.9041 114.906 96.9591 114.629 97.0659 114.371C97.1728 114.113 97.3294 113.879 97.527 113.682C97.7246 113.484 97.9591 113.328 98.2173 113.221C98.4754 113.114 98.7521 113.059 99.0315 113.059C99.3109 113.059 99.5875 113.115 99.8455 113.222C100.104 113.329 100.338 113.486 100.535 113.683L105.045 118.19C105.343 118.487 105.545 118.865 105.627 119.277C105.709 119.689 105.667 120.117 105.506 120.505C105.345 120.893 105.073 121.225 104.723 121.458C104.373 121.692 103.962 121.816 103.542 121.816V121.816Z" fill="black"/>
<path d="M68.9642 87.2655C68.6849 87.2659 68.4084 87.2111 68.1504 87.1043C67.8924 86.9975 67.6581 86.8409 67.4609 86.6433L62.9509 82.137C62.7535 81.9397 62.5969 81.7055 62.49 81.4478C62.3832 81.19 62.3282 80.9138 62.3282 80.6348C62.3282 80.3558 62.3832 80.0796 62.49 79.8218C62.5969 79.5641 62.7535 79.3299 62.9509 79.1326C63.1483 78.9353 63.3827 78.7788 63.6407 78.6721C63.8986 78.5653 64.1751 78.5104 64.4543 78.5104C64.7335 78.5104 65.01 78.5653 65.2679 78.6721C65.5259 78.7788 65.7603 78.9353 65.9577 79.1326L70.4675 83.639C70.7648 83.9361 70.9673 84.3146 71.0493 84.7267C71.1314 85.1388 71.0893 85.5659 70.9284 85.9541C70.7674 86.3423 70.495 86.6741 70.1453 86.9075C69.7957 87.1409 69.3847 87.2655 68.9642 87.2655V87.2655Z" fill="black"/>
<path d="M83.9981 112.91C81.4751 112.91 79.0088 112.162 76.9111 110.761C74.8133 109.361 73.1783 107.37 72.2128 105.041C71.2473 102.712 70.9947 100.149 71.4869 97.6766C71.9791 95.204 73.194 92.9328 74.978 91.1502C76.762 89.3676 79.035 88.1537 81.5095 87.6618C83.984 87.17 86.5488 87.4224 88.8798 88.3872C91.2107 89.3519 93.2029 90.9856 94.6046 93.0818C96.0063 95.1779 96.7545 97.6423 96.7545 100.163C96.7507 103.543 95.4054 106.783 93.014 109.172C90.6225 111.562 87.3801 112.906 83.9981 112.91V112.91ZM83.9981 91.6657C82.3161 91.6657 80.6719 92.1641 79.2734 93.0978C77.8749 94.0315 76.7849 95.3587 76.1412 96.9114C75.4976 98.4641 75.3291 100.173 75.6573 101.821C75.9854 103.469 76.7954 104.984 77.9847 106.172C79.1741 107.36 80.6894 108.17 82.339 108.498C83.9887 108.825 85.6986 108.657 87.2525 108.014C88.8065 107.371 90.1347 106.282 91.0691 104.884C92.0036 103.487 92.5024 101.844 92.5024 100.163C92.4998 97.9104 91.603 95.7504 90.0087 94.1574C88.4144 92.5643 86.2528 91.6682 83.9981 91.6657V91.6657Z" fill="black"/>
</g>
<defs>
<clipPath id="clip0">
<rect width="379" height="380" fill="white"/>
</clipPath>
</defs>
</svg>
